# xmcd
#
# Track frame offsets:
#	182
#	20687
#	41690
#	59272
#	88000
#	108687
#	132825
#	148712
#	172145
#	199135
#	219765
#
# Disc length: 3357 seconds
# Revision: 4
# Processed by: cddbd v1.5.2PL0 Copyright (c) Steve Scherf et al.
# Submitted via: dBpowerAMP V12.0
#
DISCID=a30d1b0b
DTITLE=Robben Ford and the Blue Line - Mystic Mile [Bonus Track]
DYEAR=1993
DGENRE=Blues
TTITLE0=He Don't Play Nothin' But the Blues
TTITLE1=Busted Up
TTITLE2=Politician
TTITLE3=Worried Life Blues
TTITLE4=Misdirected Blues
TTITLE5=Moth to a Flame
TTITLE6=Trying to Do the Right Thing (For Anne)
TTITLE7=Say What's on Your Mind
TTITLE8=The Plunge
TTITLE9=I don't play
TTITLE10=Mystic Mile
EXTD=
EXTT0=
EXTT1=
EXTT2=
EXTT3=
EXTT4=
EXTT5=
EXTT6=
EXTT7=
EXTT8=
EXTT9=
EXTT10=
PLAYORDER=
